<?xml version="1.0" encoding="UTF-8" standalone="no"?>
<svg width="100" height="100" viewBox="0 0 100 100" xmlns="http://www.w3.org/2000/svg">
  <rect width="100" height="100" rx="8" fill="#f8f9fa"/>
  <g fill="#6c757d">
    <path d="M50,25 C55.5228,25 60,29.4772 60,35 C60,40.5228 55.5228,45 50,45 C44.4772,45 40,40.5228 40,35 C40,29.4772 44.4772,25 50,25 Z"/>
    <path d="M70,75 L30,75 C30,65 40,55 50,55 C60,55 70,65 70,75 Z"/>
    <path d="M40,80 L60,80 C61.1046,80 62,80.8954 62,82 C62,83.1046 61.1046,84 60,84 L40,84 C38.8954,84 38,83.1046 38,82 C38,80.8954 38.8954,80 40,80 Z"/>
  </g>
  <text x="50" y="95" font-family="Arial, sans-serif" font-size="8" fill="#6c757d" text-anchor="middle">Sign not available</text>
</svg>
